{
  "accessors": [
    {
      "bufferView": 2,
      "componentType": 5126,
      "count": 4454,
      "max": [
        26.869047164916992,
        19.486753463745117,
        100.0
      ],
      "min": [
        -24.53091049194336,
        -30.39710807800293,
        0.03755199909210205
      ],
      "type": "VEC3"
    },
    {
      "bufferView": 2,
      "byteOffset": 53448,
      "componentType": 5126,
      "count": 4454,
      "max": [
        0.9938182234764099,
        0.9989291429519653,
        0.9938513040542603
      ],
      "min": [
        -0.9999419450759888,
        -0.9987576007843018,
        -0.9997667670249939
      ],
      "type": "VEC3"
    },
    {
      "bufferView": 1,
      "componentType": 5126,
      "count": 4454,
      "max": [
        0.9017999768257141,
        0.9700999855995178
      ],
      "min": [
        0.019200000911951065,
        0.044199999421834946
      ],
      "type": "VEC2"
    },
    {
      "bufferView": 0,
      "componentType": 5125,
      "count": 9816,
      "type": "SCALAR"
    },
    {
      "bufferView": 2,
      "byteOffset": 106896,
      "componentType": 5126,
      "count": 4623,
      "max": [
        26.340499877929688,
        31.615550994873047,
        93.02732849121094
      ],
      "min": [
        -27.048473358154297,
        -31.615550994873047,
        0.0
      ],
      "type": "VEC3"
    },
    {
      "bufferView": 2,
      "byteOffset": 162372,
      "componentType": 5126,
      "count": 4623,
      "max": [
        0.9954774975776672,
        0.9999052286148071,
        0.9995396733283997
      ],
      "min": [
        -0.9983295202255249,
        -0.9982081055641174,
        -0.9999114274978638
      ],
      "type": "VEC3"
    },
    {
      "bufferView": 1,
      "byteOffset": 35632,
      "componentType": 5126,
      "count": 4623,
      "max": [
        0.5715000033378601,
        0.9706000089645386
      ],
      "min": [
        0.04360000044107437,
        0.06539999693632126
      ],
      "type": "VEC2"
    },
    {
      "bufferView": 0,
      "byteOffset": 39264,
      "componentType": 5125,
      "count": 7656,
      "type": "SCALAR"
    },
    {
      "bufferView": 2,
      "byteOffset": 217848,
      "componentType": 5126,
      "count": 2114,
      "max": [
        27.04847526550293,
        17.955354690551758,
        93.02732849121094
      ],
      "min": [
        -16.693090438842773,
        -18.22797203063965,
        0.0
      ],
      "type": "VEC3"
    },
    {
      "bufferView": 2,
      "byteOffset": 243216,
      "componentType": 5126,
      "count": 2114,
      "max": [
        0.9946384429931641,
        0.9999052286148071,
        0.9995396733283997
      ],
      "min": [
        -0.9985367655754089,
        -0.9954231381416321,
        -0.9999078512191772
      ],
      "type": "VEC3"
    },
    {
      "bufferView": 1,
      "byteOffset": 72616,
      "componentType": 5126,
      "count": 2114,
      "max": [
        0.8618999719619751,
        0.9706000089645386
      ],
      "min": [
        0.042899999767541885,
        0.11110000312328339
      ],
      "type": "VEC2"
    },
    {
      "bufferView": 0,
      "byteOffset": 69888,
      "componentType": 5125,
      "count": 3156,
      "type": "SCALAR"
    },
    {
      "bufferView": 2,
      "byteOffset": 268584,
      "componentType": 5126,
      "count": 148,
      "max": [
        21.682315826416016,
        22.142017364501953,
        50.679466247558594
      ],
      "min": [
        14.062870979309082,
        14.407123565673828,
        14.899505615234375
      ],
      "type": "VEC3"
    },
    {
      "bufferView": 2,
      "byteOffset": 270360,
      "componentType": 5126,
      "count": 148,
      "max": [
        0.9751142859458923,
        0.9767917394638062,
        0.9796611666679382
      ],
      "min": [
        -0.980671226978302,
        -0.9676793813705444,
        -0.9838624596595764
      ],
      "type": "VEC3"
    },
    {
      "bufferView": 1,
      "byteOffset": 89528,
      "componentType": 5126,
      "count": 148,
      "max": [
        0.9017999768257141,
        0.9458000063896179
      ],
      "min": [
        0.05420000106096268,
        0.13809999823570251
      ],
      "type": "VEC2"
    },
    {
      "bufferView": 0,
      "byteOffset": 82512,
      "componentType": 5125,
      "count": 204,
      "type": "SCALAR"
    }
  ],
  "asset": {
    "extras": {
      "author": "xxxtvvgge (https://sketchfab.com/xxxtvvgge)",
      "license": "CC-BY-4.0 (http://creativecommons.org/licenses/by/4.0/)",
      "source": "https://sketchfab.com/3d-models/low-poly-archer-9bf1b28371fe42bea4820aa21a01afe5",
      "title": "Low Poly Archer"
    },
    "generator": "Sketchfab-12.67.0",
    "version": "2.0"
  },
  "bufferViews": [
    {
      "buffer": 0,
      "byteLength": 83328,
      "name": "floatBufferViews",
      "target": 34963
    },
    {
      "buffer": 0,
      "byteLength": 90712,
      "byteOffset": 83328,
      "byteStride": 8,
      "name": "floatBufferViews",
      "target": 34962
    },
    {
      "buffer": 0,
      "byteLength": 272136,
      "byteOffset": 174040,
      "byteStride": 12,
      "name": "floatBufferViews",
      "target": 34962
    }
  ],
  "buffers": [
    {
      "byteLength": 446176,
      "uri": "scene.bin"
    }
  ],
  "materials": [
    {
      "doubleSided": true,
      "name": "Archer_Blue",
      "pbrMetallicRoughness": {
        "metallicFactor": 0.0,
        "roughnessFactor": 0.6
      }
    },
    {
      "doubleSided": true,
      "name": "Archer_Red",
      "pbrMetallicRoughness": {
        "metallicFactor": 0.0,
        "roughnessFactor": 0.6
      }
    }
  ],
  "meshes": [
    {
      "name": "Object_0",
      "primitives": [
        {
          "attributes": {
            "NORMAL": 1,
            "POSITION": 0,
            "TEXCOORD_0": 2
          },
          "indices": 3,
          "material": 0,
          "mode": 4
        }
      ]
    },
    {
      "name": "Object_1",
      "primitives": [
        {
          "attributes": {
            "NORMAL": 5,
            "POSITION": 4,
            "TEXCOORD_0": 6
          },
          "indices": 7,
          "material": 0,
          "mode": 4
        }
      ]
    },
    {
      "name": "Object_2",
      "primitives": [
        {
          "attributes": {
            "NORMAL": 9,
            "POSITION": 8,
            "TEXCOORD_0": 10
          },
          "indices": 11,
          "material": 0,
          "mode": 4
        }
      ]
    },
    {
      "name": "Object_3",
      "primitives": [
        {
          "attributes": {
            "NORMAL": 13,
            "POSITION": 12,
            "TEXCOORD_0": 14
          },
          "indices": 15,
          "material": 1,
          "mode": 4
        }
      ]
    }
  ],
  "nodes": [
    {
      "children": [
        1
      ],
      "matrix": [
        2.220446049250313e-16,
        6.123234262925839e-17,
        -1.0,
        0.0,
        -1.0,
        -1.6081226229577287e-16,
        -2.2204460492503136e-16,
        0.0,
        -1.6081226229577292e-16,
        1.0,
        6.123234262925839e-17,
        0.0,
        0.0023088455200195313,
        -1.2398444765434821e-18,
        0.005583763122558594,
        1.0
      ],
      "name": "Sketchfab_model"
    },
    {
      "children": [
        2,
        3,
        4,
        5
      ],
      "name": "Archer_20_06_3711.obj.cleaner.materialmerger.gles"
    },
    {
      "mesh": 0,
      "name": "Object_2"
    },
    {
      "mesh": 1,
      "name": "Object_3"
    },
    {
      "mesh": 2,
      "name": "Object_4"
    },
    {
      "mesh": 3,
      "name": "Object_5"
    }
  ],
  "scene": 0,
  "scenes": [
    {
      "name": "Sketchfab_Scene",
      "nodes": [
        0
      ]
    }
  ]
}
